<svg xmlns="http://www.w3.org/2000/svg" viewBox="0 0 510.4 512"><path transform="translate(-4.89 -4.12)" d="m421.62 426.57h17.67v-5.24h19.87v5.24h19v-5.24h19.84v5.24h17.27v12.92h-17.27v13.73h-20.16v3.63h31.48v13.68a15.81 15.81 0 0 1 -15.8 15.8h-15.68v3.67h37.44v12.92h-37.44v12.51h-18v-12.55h-37.42v-12.88h37.44v-3.63h-31.86v-29.52h31.87v-3.63h-20.58v-13.73h-17.67zm26.18 47.24h12.06v-4.44h-12.06zm11.36-31.49h19v-2.83h-19zm18.68 31.49h11.6v-4.44h-11.6zm-31.36-136-12.11-6.86q-3.24 8.47-14.54 14.53l9.29 11.71q10.88-6.07 17.36-19.39zm48.45 40.37c4-3.23 5.78-4.69 7.39-6.57v-9.61h-36.46l3.23-3.63h9.69a7.68 7.68 0 0 0 6.46-3.23 10.2 10.2 0 0 0 2.42-6.86v-19h25.84v-12.88h-38.76v-6.86h-15.34v6.86h-37.55v12.92h27.45q.4 8.08-1.61 13.33a26.68 26.68 0 0 1 -8.88 10.9l8.88 7.67a39.55 39.55 0 0 1 -9.29 6.46 76 76 0 0 1 -16.48 6.42v12.77a56.2 56.2 0 0 0 12.56-2.87 84.17 84.17 0 0 0 9.17-4.22 51.27 51.27 0 0 0 8.48 6q-4 2-13.73 3.64a122.71 122.71 0 0 1 -16.48 1.33v13.73a147.91 147.91 0 0 0 27.79-3.35 85.17 85.17 0 0 0 19.38-6.87c12.2 6.71 28.25 9.19 44.4 9.46v-14.65c-13.19 0-22.06-1.34-28.25-4a61.74 61.74 0 0 0 9.69-6.9zm-30.69-48.85h9.29v11.31s.18 3.63-3.23 3.63h-6.46l3.23 12.92-8.07-1.62q4-5.65 5.24-26.25zm10.5 47.24c-2.69 1.88-4.71 2.83-6.06 2.83a24.29 24.29 0 0 1 -10.49-6.46h21.39a36.78 36.78 0 0 1 -4.84 3.62zm26.26-45.23-11.71 8.08q3.24 2 8.08 8.47a35.62 35.62 0 0 1 6 9.29l11.71-9.29a59.5 59.5 0 0 0 -6.46-8.88 50.23 50.23 0 0 0 -7.62-7.67zm-328.55 88.44a42.73 42.73 0 0 0 -30 11.55c-8.29 7.67-12.45 17.14-12.45 28.08v54.81h23.71v-20.89h37.54v20.89h23.71v-54.81c0-10.94-4.19-20.39-12.46-28.08a42.73 42.73 0 0 0 -30.05-11.55zm18.77 51.27h-37.54v-11.64a16 16 0 0 1 5.4-12.28 20.19 20.19 0 0 1 26.74 0 16 16 0 0 1 5.4 12.28zm122-49.34-33.77-.17-27.05 36.62v-36.48h-23.69v92.54h23.71v-40.14l31.12 40.28 33.9-.16-40.56-48.14zm72.48 0v54.79a16 16 0 0 1 -5.4 12.27 20.18 20.18 0 0 1 -26.75 0 16 16 0 0 1 -5.39-12.27v-54.82h-23.69v54.82c0 10.93 4.19 20.37 12.46 28.07a44.78 44.78 0 0 0 60 0c8.27-7.7 12.46-17.14 12.46-28.07v-54.82zm-38.3-17.95v-51l42.78 51h18.46v-87.17l-403.75-312.47v509.65l30.54-40.4v40.85h23.71v-40.14l31.12 40.28 33.9-.16-40.56-48.14 36.4-44.35-33.77-.17-27 36.62v-16.16l71.47-94.53v56.29h23.2v-35.13h38v35.13h23.28v-87.7l22.71.06v87.64h64.11v-21.86h-40.86v-13.27h40.86v-21.85h-40.86v-13.27h40.86v-17.24l22.14.06v87.43zm38-41.09-38.84-46.29 38.84.1zm-193.5-15.89h-38v-30.12l.56-.75 37.4.09z"></path></svg>